<?xml version="1.0" standalone="no"?><svg xmlns="http://www.w3.org/2000/svg" viewBox="0 0 1440 320"><path fill="#000b76" fill-opacity="0.9" d="M0,128L11.4,160C22.9,192,46,256,69,272C91.4,288,114,256,137,218.7C160,181,183,139,206,149.3C228.6,160,251,224,274,250.7C297.1,277,320,267,343,261.3C365.7,256,389,256,411,229.3C434.3,203,457,149,480,106.7C502.9,64,526,32,549,42.7C571.4,53,594,107,617,122.7C640,139,663,117,686,101.3C708.6,85,731,75,754,80C777.1,85,800,107,823,144C845.7,181,869,235,891,229.3C914.3,224,937,160,960,112C982.9,64,1006,32,1029,42.7C1051.4,53,1074,107,1097,160C1120,213,1143,267,1166,256C1188.6,245,1211,171,1234,165.3C1257.1,160,1280,224,1303,245.3C1325.7,267,1349,245,1371,202.7C1394.3,160,1417,96,1429,64L1440,32L1440,0L1428.6,0C1417.1,0,1394,0,1371,0C1348.6,0,1326,0,1303,0C1280,0,1257,0,1234,0C1211.4,0,1189,0,1166,0C1142.9,0,1120,0,1097,0C1074.3,0,1051,0,1029,0C1005.7,0,983,0,960,0C937.1,0,914,0,891,0C868.6,0,846,0,823,0C800,0,777,0,754,0C731.4,0,709,0,686,0C662.9,0,640,0,617,0C594.3,0,571,0,549,0C525.7,0,503,0,480,0C457.1,0,434,0,411,0C388.6,0,366,0,343,0C320,0,297,0,274,0C251.4,0,229,0,206,0C182.9,0,160,0,137,0C114.3,0,91,0,69,0C45.7,0,23,0,11,0L0,0Z"></path></svg>