<?xml version="1.0" standalone="no"?><svg xmlns="http://www.w3.org/2000/svg" viewBox="0 0 1440 320"><path fill="#00cba9" fill-opacity="0.9" d="M0,64L12.6,69.3C25.3,75,51,85,76,96C101.1,107,126,117,152,117.3C176.8,117,202,107,227,90.7C252.6,75,278,53,303,42.7C328.4,32,354,32,379,37.3C404.2,43,429,53,455,53.3C480,53,505,43,531,58.7C555.8,75,581,117,606,138.7C631.6,160,657,160,682,149.3C707.4,139,733,117,758,90.7C783.2,64,808,32,834,42.7C858.9,53,884,107,909,112C934.7,117,960,75,985,69.3C1010.5,64,1036,96,1061,117.3C1086.3,139,1112,149,1137,176C1162.1,203,1187,245,1213,245.3C1237.9,245,1263,203,1288,208C1313.7,213,1339,267,1364,272C1389.5,277,1415,235,1427,213.3L1440,192L1440,0L1427.4,0C1414.7,0,1389,0,1364,0C1338.9,0,1314,0,1288,0C1263.2,0,1238,0,1213,0C1187.4,0,1162,0,1137,0C1111.6,0,1086,0,1061,0C1035.8,0,1011,0,985,0C960,0,935,0,909,0C884.2,0,859,0,834,0C808.4,0,783,0,758,0C732.6,0,707,0,682,0C656.8,0,632,0,606,0C581.1,0,556,0,531,0C505.3,0,480,0,455,0C429.5,0,404,0,379,0C353.7,0,328,0,303,0C277.9,0,253,0,227,0C202.1,0,177,0,152,0C126.3,0,101,0,76,0C50.5,0,25,0,13,0L0,0Z"></path></svg>