<?xml version="1.0" standalone="no"?><svg xmlns="http://www.w3.org/2000/svg" viewBox="0 0 1440 320"><path fill="#0099ff" fill-opacity="0.9" d="M0,224L21.8,224C43.6,224,87,224,131,224C174.5,224,218,224,262,202.7C305.5,181,349,139,393,133.3C436.4,128,480,160,524,160C567.3,160,611,128,655,101.3C698.2,75,742,53,785,53.3C829.1,53,873,75,916,101.3C960,128,1004,160,1047,160C1090.9,160,1135,128,1178,112C1221.8,96,1265,96,1309,85.3C1352.7,75,1396,53,1418,42.7L1440,32L1440,320L1418.2,320C1396.4,320,1353,320,1309,320C1265.5,320,1222,320,1178,320C1134.5,320,1091,320,1047,320C1003.6,320,960,320,916,320C872.7,320,829,320,785,320C741.8,320,698,320,655,320C610.9,320,567,320,524,320C480,320,436,320,393,320C349.1,320,305,320,262,320C218.2,320,175,320,131,320C87.3,320,44,320,22,320L0,320Z"></path></svg>